<svg width="19" height="18" viewBox="0 0 19 18" fill="none" xmlns="http://www.w3.org/2000/svg">
<path d="M0.375 8.43909C0.406491 7.39894 0.405197 6.0749 0.496651 4.75664C0.601909 3.23548 1.23044 1.94656 2.59448 1.06965C3.42188 0.538218 4.35799 0.293162 5.34198 0.262995C6.90101 0.215472 8.46176 0.19109 10.0217 0.188611C11.1717 0.186958 12.324 0.199768 13.4706 0.272087C15.0016 0.368373 16.3113 0.929149 17.2392 2.15443C17.8444 2.95406 18.1227 3.87105 18.1692 4.84177C18.224 5.98316 18.2348 7.12703 18.2404 8.26966C18.2469 9.53708 18.24 10.8045 18.2124 12.0715C18.1912 13.0282 18.0416 13.9683 17.555 14.8238C16.8501 16.0618 15.7539 16.8247 14.3161 17.066C13.4715 17.2078 12.6022 17.2586 11.7429 17.2677C9.79432 17.2884 7.84531 17.2698 5.89674 17.2437C4.95114 17.2309 4.01806 17.1045 3.15313 16.6995C1.93058 16.1267 1.13208 15.2068 0.735207 13.9625C0.542378 13.3584 0.464297 12.7377 0.449198 12.1095C0.422021 10.9806 0.40304 9.85115 0.375 8.43909ZM9.29779 15.7837C10.5997 15.7494 11.8934 15.7271 13.1859 15.6767C13.9883 15.6453 14.7496 15.4602 15.392 14.9597C16.2259 14.3101 16.5252 13.4212 16.5731 12.441C16.6935 9.9776 16.6935 7.51259 16.574 5.04922C16.5369 4.28141 16.3484 3.55079 15.8294 2.9334C15.1603 2.13748 14.2385 1.82672 13.2247 1.79862C11.3499 1.74697 9.47293 1.73374 7.59727 1.74077C6.65814 1.74449 5.71297 1.78002 4.78204 1.88871C3.75275 2.00896 2.96159 2.54247 2.48016 3.44004C2.15533 4.04627 2.05999 4.71119 2.05007 5.38271C2.02635 6.99396 2.00391 8.60521 2.01297 10.2165C2.01815 11.1099 2.06517 12.005 2.13592 12.896C2.18208 13.479 2.3995 14.0212 2.78127 14.4911C3.45208 15.3176 4.38387 15.6288 5.4261 15.6746C6.71767 15.7308 8.01183 15.749 9.29779 15.7837Z" fill="#270641"/>
<path d="M4.75001 8.73283C4.75432 6.28558 6.79133 4.34332 9.34556 4.35159C11.87 4.35944 13.9148 6.31864 13.9135 8.72746C13.9122 11.1714 11.848 13.1393 9.29984 13.1261C6.77968 13.1128 4.74569 11.1487 4.75001 8.73283ZM6.35174 8.73944C6.35261 10.3056 7.67869 11.5809 9.31105 11.5846C10.9572 11.5884 12.2975 10.3156 12.3014 8.74399C12.3053 7.17159 10.9723 5.89217 9.32615 5.88887C7.68386 5.88597 6.35131 7.16291 6.35174 8.73944Z" fill="#270641"/>
<path d="M14.0836 3.14748C14.6815 3.14417 15.1543 3.59172 15.1564 4.16324C15.159 4.73807 14.6961 5.18768 14.0978 5.19222C13.5038 5.19677 13.0241 4.74468 13.0215 4.1777C13.0189 3.60949 13.4921 3.15037 14.0836 3.14748Z" fill="#270641"/>
</svg>
