<svg width="391" height="86" viewBox="0 0 391 86" fill="none" xmlns="http://www.w3.org/2000/svg">
    <path
        d="M108.62 45.7194C110.023 39.6747 112.588 34.0671 115.25 28.511C118.767 21.1751 123.374 14.4791 127.757 7.65175C128.485 6.52052 129.642 6.49481 130.716 6.57765C132.707 6.73477 134.727 6.79191 136.704 7.08614C138.089 7.29182 139.42 7.30613 141.131 7.61179C139.092 9.31149 137.361 10.8484 135.955 12.7052C135.678 13.0737 135.298 13.3365 135.864 13.7907C136.369 14.1935 136.552 13.8221 136.809 13.5107C138.238 11.7767 139.966 10.3456 141.528 8.74301C142.214 8.04028 142.994 7.7575 143.945 7.91461C147.056 8.42024 150.175 8.91153 153.284 9.4343C157.623 10.1656 162.008 10.2685 166.387 10.3142C169.129 10.3427 171.846 9.99709 174.274 8.53734C176.291 7.32041 176.602 5.9092 175.342 3.93812C174.48 2.58693 173.154 1.82711 171.697 1.35005C167.378 -0.0696992 162.925 -0.349656 158.477 0.415925C153.124 1.34433 147.822 2.62408 143.374 5.95493C143.357 5.96635 143.345 5.97495 143.328 5.98638C143.234 6.05779 143.137 6.12348 143.045 6.18347C140.254 5.75212 138.089 5.35215 136.335 5.0065C134.652 4.67799 132.93 4.47802 131.227 4.36376C129.476 4.2752 127.831 4.05238 126.114 4.00667C122.586 3.91812 118.932 4.12957 115.447 4.63805C110.802 5.31793 106.197 6.22916 101.641 7.4518C97.7675 8.49162 93.8968 9.55144 90.0231 10.5941C84.1956 12.1653 78.4937 14.165 72.6833 15.779C70.4237 16.4046 68.1498 16.973 65.8445 17.4386C61.4196 18.327 57.0032 19.3498 52.4497 19.5554C48.0619 19.7554 43.6941 20.0439 39.372 18.9156C36.0154 18.0386 32.7246 17.1073 30.1308 14.5991C29.3452 13.8421 28.7767 12.9223 29.2452 12.0282C29.448 11.6454 29.7051 11.294 29.8965 10.9055C30.0822 10.5313 30.365 10.2171 30.5364 9.83141C30.7192 9.3972 30.7764 8.7887 30.3222 8.51161C29.9794 8.30021 29.6194 8.38883 29.2909 8.78876C27.7483 10.6684 27.2398 14.2792 29.7451 16.3474C30.3193 16.8188 30.9192 17.2987 31.5277 17.6872C34.9328 19.8554 38.7607 20.9352 42.7257 21.2408C47.4334 21.615 52.1498 21.6207 56.8832 21.078C69.1525 19.6697 81.2218 17.0387 93.1769 13.9592C96.5506 13.0908 99.8671 11.9825 103.244 11.1426C108.48 9.84 113.736 8.61163 119.01 7.48612C121.023 7.05762 123.117 7.00048 125.234 6.76338C125.143 7.46325 124.828 7.84031 124.551 8.23738C117.633 18.0557 112.236 28.6796 108.057 39.9119C106.834 43.1942 105.906 46.6278 106.503 50.2386C106.663 51.2156 106.903 52.1726 107.657 52.8753C107.943 53.141 108.351 53.4381 108.743 53.1781C109.083 52.9496 108.926 52.5382 108.806 52.1926C108.043 50.053 108.123 47.8762 108.62 45.7194ZM145.236 6.21206C148.167 4.21813 151.441 3.20969 154.766 2.30699C159.322 1.07577 163.953 0.995792 168.595 1.52713C170.395 1.73281 172.197 2.26127 173.531 3.64959C174.974 5.15505 174.825 6.41203 173.094 7.50327C171.4 8.5688 169.549 9.10868 167.527 9.18581C167.361 9.18866 167.198 9.19439 167.033 9.2001L162.473 9.10295C160.485 9.05725 157.743 8.72591 155.777 8.42596C152.055 7.86035 148.77 7.06617 144.865 6.46342C144.988 6.37772 145.111 6.29205 145.236 6.21206Z"
        fill="#270641" />
    <path
        d="M186.147 35.8953C185.676 35.5982 185.256 35.7954 184.784 35.9696C183.225 36.5438 181.805 37.3865 180.374 38.2092C177.36 39.9461 174.369 41.7315 171.318 43.4112C170.541 43.8368 169.55 44.4452 168.684 43.7968C167.682 43.0512 167.816 41.8229 167.893 40.6974C167.904 40.5203 167.981 40.3517 168.01 40.1746C168.247 38.7863 168.893 37.5693 169.575 36.3581C169.89 35.801 170.313 35.1469 169.478 34.5984C167.499 33.2901 165.605 33.2158 163.814 34.7984C161.74 36.6352 159.226 37.7065 156.915 39.1148C155.409 40.0289 153.85 40.9287 152.067 41.3144C150.602 41.6286 150.11 41.2544 150.33 39.7861C150.382 39.4433 150.545 39.1147 150.693 38.7948C151.439 37.1751 152.201 35.5668 152.941 33.9471C153.338 33.0844 153.524 32.236 152.638 31.5218C151.83 30.8705 151.167 31.3247 150.445 31.7303C148.411 32.8758 147.065 34.7727 145.385 36.301C144.771 36.858 144.229 37.5094 143.417 37.8379C143.089 37.2294 143.523 36.9466 143.749 36.5838C144.251 35.7468 144.737 34.8955 145.234 34.0528C145.68 33.2987 145.177 32.8758 144.66 32.5073C144.086 32.096 143.677 32.4159 143.306 32.8873C142.783 33.5529 142.177 34.17 141.906 34.9955C141.535 36.1182 140.655 36.7809 139.649 37.1266C136.01 38.3664 133.116 40.703 130.334 43.2255C128.817 44.5995 127.509 46.2192 125.692 47.2419C124.738 47.779 124.092 47.5305 124.021 46.4764C123.955 45.5108 123.906 44.5424 124.181 43.554C124.98 40.6859 126.257 38.0693 128.037 35.6868C128.477 35.0926 128.88 34.487 128.143 33.8043C127.371 33.093 126.752 33.5243 126.157 34.05C125.895 34.2842 125.686 34.587 125.469 34.8669C124.152 36.598 123.529 38.6635 122.729 40.6374C121.972 42.5085 121.861 44.431 122.389 46.3906C122.721 47.6247 123.341 48.6502 124.655 48.9445C125.963 49.2416 127 48.6302 127.826 47.6447C129.405 45.7679 131.165 44.0653 133.028 42.4685C135.279 40.546 137.787 39.0319 140.435 37.735C140.772 37.5693 141.172 37.1294 141.435 37.9435C142.155 40.1831 142.986 40.3288 144.668 38.7177C146.345 37.1179 147.805 35.2897 149.676 33.8928C149.99 33.6586 150.35 33.2301 150.705 33.5014C151.082 33.7842 150.722 34.2471 150.582 34.6041C150.387 35.0955 150.196 35.6068 149.905 36.0439C149.27 36.998 148.988 38.0664 148.811 39.169C148.391 41.7572 150.136 43.3112 152.678 42.6056C153.19 42.4656 153.69 42.2628 154.167 42.0314C156.341 40.9887 158.369 39.6947 160.429 38.4492C160.726 38.2663 161.008 37.875 161.365 38.0749C161.808 38.3206 161.357 38.7005 161.351 39.0233C161.328 40.0346 161.037 41.1858 162.12 41.8257C163.111 42.4085 163.759 41.5286 164.459 41.0173C165.082 40.5602 165.49 40.2317 165.696 41.4486C166.036 43.4654 167.642 45.4622 170.524 44.9738C171.475 44.8138 172.272 44.3082 173.075 43.8282C177.286 41.3258 181.145 38.2178 185.753 36.3895C185.967 36.3038 186.153 36.1867 186.147 35.8953ZM167.107 35.704C166.145 37.338 165.342 39.1147 163.177 40.1431C163.594 37.7521 164.982 36.3524 166.525 35.0584C166.687 34.9241 166.953 34.8555 167.127 35.0783C167.279 35.2726 167.23 35.4983 167.107 35.704Z"
        fill="#270641" />
    <path
        d="M130.471 28.0232C129.805 27.8633 129.542 28.5631 129.58 29.0802C129.642 29.9686 130.382 30.1429 131.128 30.2029C131.976 30.2686 132.793 29.7029 132.671 29.0945C132.479 28.1404 131.274 28.2146 130.471 28.0232Z"
        fill="#270641" />
    <path
        d="M286.074 50.5216C285.137 50.4845 284.643 51.2615 283.92 51.5157C282.575 51.9785 281.969 51.6472 281.635 50.256C281.235 48.5791 281.995 47.2193 282.752 45.871C284.029 43.58 285.363 41.3147 286.688 39.0465C287.014 38.4837 287.299 37.921 286.828 37.3182C286.345 36.7098 286.554 36.2727 287.097 35.8584C287.765 35.3385 287.642 34.8358 287.059 34.3159C286.225 33.5646 285.408 33.7989 284.683 35.21C284.391 35.7728 284.106 36.207 283.497 36.3098C282.357 36.4984 281.409 37.0811 280.489 37.701C277.758 39.5464 274.904 41.1947 272.074 42.8715C271.268 43.3457 270.428 43.7257 269.491 43.8971C268.246 44.1256 267.543 43.6314 267.451 42.3659C267.289 40.1006 267.549 37.941 268.866 35.9842C269.56 34.9558 269.231 34.3673 268.014 34.2759C267.806 34.2616 267.614 34.3159 267.386 34.2302C265.286 33.4417 264.189 33.6846 262.964 35.55C262.364 36.4641 261.735 37.3582 261.015 38.1781C260.298 38.9951 259.49 39.7349 258.576 40.3234C258.156 40.5919 257.719 40.8433 257.342 41.1747C257.322 41.1918 257.176 41.2918 257.176 41.3004C256.87 41.5232 256.539 41.7631 256.905 42.1431C256.99 42.2316 257.102 42.2916 257.228 42.2545C257.339 42.2231 257.43 42.1403 257.516 42.0689C257.625 41.9803 257.745 41.9117 257.862 41.8346C258.15 41.646 258.416 41.4261 258.667 41.189C258.753 41.1119 258.853 41.0347 258.927 40.9461C259.299 40.5833 259.659 40.2091 260.07 39.8892C260.204 39.7835 260.344 39.6835 260.49 39.5921C260.561 39.5464 260.636 39.5007 260.713 39.4607C260.736 39.4464 260.947 39.355 260.947 39.3436C260.998 40.3149 261.027 41.1376 262.038 41.5403C262.964 41.9089 263.461 41.3147 264.058 40.8833C264.335 40.6833 264.523 40.2691 264.955 40.4548C265.363 40.6348 265.26 41.0461 265.3 41.3947C265.58 43.7571 267.346 45.0569 269.703 44.7398C271.851 44.457 273.373 43.0172 275.107 41.966C277.99 40.2149 280.629 38.0524 283.843 36.8668C284.271 36.7097 284.737 36.3298 285.151 36.9012C285.554 37.4468 285.651 37.9953 285.231 38.618C284.634 39.5007 284.091 40.4263 283.526 41.3347C282.14 43.5657 280.718 45.7853 280.238 48.4334C279.952 50.0217 281.078 52.0128 282.457 52.4613C283.692 52.8612 285.263 52.0556 286.074 50.5216ZM266.123 36.9383C265.486 38.1523 264.343 38.9265 263.501 39.9635C263.344 40.1577 263.004 40.4348 262.687 40.1806C262.458 39.9978 262.51 39.6892 262.601 39.4292C263.227 37.6581 264.372 36.2441 265.755 35.03C266.149 34.6844 266.655 34.8101 266.966 35.3986C266.675 35.9299 266.392 36.4298 266.123 36.9383Z"
        fill="#270641" />
    <path
        d="M255.998 32.6406C255.789 32.5806 255.558 32.5834 255.335 32.5805C252.847 32.5348 251.63 34.3345 250.536 36.1057C250.024 36.9341 249.556 37.6368 248.639 37.9796C246.299 38.7824 243.928 39.028 241.423 38.551C242.009 37.5911 242.5 36.7484 243.031 35.9285C243.908 34.5745 244.191 33.0205 244.291 31.4836C244.442 29.204 241.26 27.4215 239.006 28.6641C235.89 30.3809 233.764 32.8291 236.312 36.3999C236.981 37.3397 236.804 38.011 235.97 38.6652C233.373 40.702 230.842 42.8274 228.174 44.767C225.971 46.3582 222.498 46.3124 221.218 43.1444C220.638 41.7018 219.878 40.325 219.081 38.988C218.57 38.1339 218.887 37.7597 219.632 37.4883C221.306 36.8798 222.863 36.0228 224.48 35.3058C229.199 33.209 233.227 30.1182 236.929 26.6331C240.586 23.1908 243.588 19.2058 245.282 14.3809C246.745 10.2073 245.714 6.77936 241.354 4.9511C237.475 3.32282 233.67 4.23126 230.182 6.12807C223.566 9.72173 218.664 15.0722 215.11 21.6825C214.759 22.3367 214.339 22.9565 213.953 23.5907C214.596 20.7998 215.385 18.1174 216.487 15.5378C218.501 10.8187 220.278 5.95093 224.5 2.59723C224.689 2.44583 224.792 2.24871 224.703 2.01161C224.577 1.67167 224.286 1.72884 224.023 1.76883C223.657 1.82597 223.403 2.0916 223.118 2.30585C220.141 4.5426 218.304 7.6849 216.47 10.7929C213.831 15.2779 212.508 20.2999 210.811 25.179C208.137 32.8891 206.875 40.8705 205.935 48.9291C205.869 49.5033 205.921 50.1975 206.663 50.3032C207.372 50.4031 207.337 49.7033 207.457 49.2662C208.334 45.9954 209.14 42.7016 209.743 39.3651C209.937 38.2967 210.297 37.7768 211.502 38.1968C212.899 38.6767 214.339 38.9452 215.839 38.5224C216.616 38.3024 217.21 38.6366 217.599 39.3822C218.39 40.882 219.241 42.3531 220.027 43.8557C220.887 45.4983 222.058 46.6552 224.037 46.7438C225.714 46.8181 227.171 46.2582 228.514 45.3098C230.628 43.8186 232.736 42.3275 234.856 40.8506C235.15 40.6478 235.424 40.2963 235.878 40.6649C237.472 41.9532 238.021 41.9561 239.512 40.4449C240.197 39.7507 240.86 39.5222 241.84 39.5222C243.006 39.5222 244.171 39.6622 245.339 39.6022C246.345 39.5508 247.208 39.1166 248.156 38.8424C248.762 38.6681 249.793 37.9597 250.324 38.4967C250.847 39.0252 251.51 39.1051 252.138 39.2508C254.049 39.6936 254.569 40.582 253.667 42.3074C252.658 44.2385 250.993 45.5012 248.999 46.321C248.299 46.6095 247.51 47.3123 246.802 46.621C246.082 45.9183 246.879 45.2526 247.199 44.6042C247.422 44.1528 247.545 43.6929 246.782 43.7357C245.771 43.7929 244.831 45.0898 244.882 46.3096C244.937 47.5151 245.685 47.8979 246.765 47.8865C250.413 47.8408 252.995 45.9039 254.895 43.0273C256.412 40.7277 255.623 39.228 252.904 38.7309C252.307 38.6224 251.658 38.5024 251.578 37.6597C251.421 35.9685 254.078 33.2548 255.826 33.3548C256.052 33.369 256.306 33.409 256.36 33.1262C256.412 32.8748 256.218 32.7006 255.998 32.6406ZM215.485 37.1369C215.336 37.6226 214.805 37.6397 214.348 37.6425C214.213 37.6454 214.079 37.6425 213.945 37.6454C212.974 37.7082 212.12 37.294 211.248 36.9598C210.851 36.8084 210.523 36.5713 210.626 36.0686C210.72 35.6029 211.1 35.5943 211.462 35.5829C212.594 35.5429 213.691 35.7057 214.702 36.2256C215.073 36.417 215.667 36.5542 215.485 37.1369ZM217.281 36.4999C215.905 34.9773 214.142 34.3403 212.12 34.4717C211.22 34.5288 211.123 34.1717 211.403 33.4604C214.796 24.9248 218.915 16.8148 225.849 10.5559C229.139 7.58496 232.942 5.41103 237.627 5.45674C238.672 5.46816 239.675 5.69672 240.629 6.0538C242.603 6.79081 243.465 8.2477 243.503 11.1986C243.414 15.1151 241.563 18.823 238.949 22.271C233.69 29.204 226.746 33.7489 218.707 36.7941C218.147 37.0055 217.719 36.9855 217.281 36.4999ZM238.849 39.1223C238.555 39.7422 238.038 40.2478 237.381 40.522C237.027 40.3849 236.738 40.1735 236.924 39.8336C237.221 39.2994 237.261 38.4452 238.146 38.5081C238.449 38.5281 238.998 38.8109 238.849 39.1223ZM238.846 37.9225C238.135 37.3626 238.912 37.0798 239.092 36.7627C239.352 36.3114 239.803 35.9714 240.143 35.5629C240.389 35.2716 240.763 34.9687 240.317 34.546C239.903 34.146 239.52 34.1203 239.038 34.5116C238.441 34.9944 238.281 35.7971 237.692 36.2885C236.172 34.1603 237.038 31.2008 239.386 30.3381C240.897 29.7839 242.469 30.918 242.363 32.4978C242.234 34.4203 241.497 36.0971 240.277 37.5797C239.88 38.0624 239.495 38.4282 238.846 37.9225Z"
        fill="#270641" />
    <path
        d="M298.284 30.1783C299.164 30.1554 299.967 29.6441 299.835 28.9957C299.638 28.0358 298.416 28.1529 297.639 27.9044C297.085 27.7273 296.759 28.4443 296.762 28.9785C296.767 30.0012 297.633 30.0126 298.284 30.1783Z"
        fill="#270641" />
    <path
        d="M348.448 44.621C348.097 44.2554 347.691 43.944 347.226 43.744C346.934 43.6183 346.62 43.527 346.272 43.4841C345.095 43.3384 343.881 43.6669 342.815 44.1497C342.435 44.3211 342.061 44.5182 341.69 44.7238C341.435 44.8667 341.184 45.0124 340.93 45.1552C339.558 45.9265 338.142 46.7492 336.519 46.7635C336.051 46.7692 335.528 46.775 335.079 46.6264C334.785 46.5293 334.405 46.4293 334.148 46.2522C333.868 46.0665 333.617 45.8323 333.408 45.5466C332.72 44.6153 332.591 43.3098 332.537 42.1757C332.531 42.0586 332.531 41.9358 332.534 41.8101C332.551 41.0645 332.671 40.2161 332.314 39.5705C331.768 38.5878 330.3 39.0791 329.535 39.4648C327.752 40.3789 326.281 41.8101 324.79 43.1184C324.233 43.6098 323.644 44.0783 323.013 44.4696C322.636 44.7039 322.239 44.9095 321.824 45.0781C321.693 45.1323 321.559 45.1809 321.425 45.2266C321.122 45.3266 320.796 45.4066 320.49 45.3152C319.868 45.1295 319.653 44.3525 319.648 43.7041C319.631 41.4616 320.836 39.3219 320.682 37.088C320.645 36.5681 320.53 36.0454 320.27 35.5912C320.01 35.1398 319.593 34.7656 319.088 34.6285C318.585 34.4943 318.057 34.6056 317.562 34.7942C317.442 34.8399 317.325 34.8884 317.211 34.9398C316.645 35.1941 316.108 35.4998 315.577 35.8197C315.574 35.8197 315.571 35.8226 315.568 35.8254C314.406 36.5282 313.283 37.3166 312.026 37.8365C311.84 37.9136 311.652 37.9879 311.469 38.0679C311.318 38.1336 310.684 38.3593 310.518 38.3993C310.475 38.4107 310.449 38.4221 310.435 38.4221C311.729 36.4225 313.032 34.3686 313.135 31.989C313.172 31.1377 313.032 30.2407 312.523 29.5523C311.915 28.7295 310.861 28.3296 309.841 28.2782C308.087 28.1925 306.316 29.0723 305.327 30.5206C304.336 31.9689 304.162 33.9372 304.879 35.5398C305.142 36.1254 305.522 36.6996 305.493 37.3395C305.45 38.2079 304.687 38.8392 303.996 39.3676C301.257 41.4644 298.669 43.7554 296.252 46.2179C295.783 46.6949 295.303 47.192 294.686 47.4548C294.069 47.7148 293.272 47.6748 292.827 47.1749C292.421 46.7207 292.415 46.0408 292.475 45.4351C292.801 42.0243 294.395 38.8477 296.352 36.0311C296.623 35.6397 296.912 35.2341 296.983 34.7628C297.057 34.2914 296.835 33.7372 296.375 33.603C295.826 33.443 295.318 33.9315 294.969 34.3885C293.769 35.9568 292.792 37.6908 292.03 39.5162C291.116 41.6958 290.51 44.1469 291.167 46.4179C291.533 47.6805 292.515 48.9545 293.827 48.9288C294.789 48.9117 295.583 48.209 296.28 47.5491C298.706 45.2524 301.134 42.9556 303.559 40.6588C303.685 40.5417 303.816 40.4189 303.979 40.3675C304.29 40.2732 304.619 40.4589 304.847 40.6903C305.076 40.9217 305.256 41.2045 305.524 41.3844C306.141 41.7987 306.998 41.5273 307.584 41.0702C308.17 40.616 308.621 39.9933 309.247 39.5933C309.298 39.5619 309.349 39.5305 309.409 39.499C309.418 39.4933 309.424 39.4877 309.432 39.4877C309.584 39.402 309.744 39.3334 309.904 39.2791C309.907 39.2763 309.912 39.2734 309.918 39.2734C309.981 39.2449 310.044 39.2163 310.112 39.1906V39.1877H310.115C310.266 39.1391 310.415 39.082 310.564 39.0249C310.766 38.9477 310.966 38.8792 311.166 38.7963C311.266 38.7563 311.363 38.7163 311.463 38.6735C311.661 38.5907 311.858 38.505 312.055 38.4164C312.446 38.2365 312.832 38.0479 313.217 37.8537C313.6 37.6566 313.983 37.4537 314.36 37.248C314.74 37.0424 315.117 36.831 315.494 36.6224C315.746 36.4796 315.997 36.3396 316.248 36.1997C316.583 36.014 316.917 35.8283 317.254 35.6483C317.617 35.4512 318.017 35.2541 318.425 35.3141C318.794 35.3712 319.105 35.6397 319.285 35.9683C319.465 36.2939 319.528 36.6739 319.542 37.0452C319.596 38.2907 319.176 39.502 318.845 40.7017C318.514 41.9044 318.268 43.2013 318.668 44.3811C318.831 44.8638 319.111 45.3238 319.536 45.6037C320.199 46.0351 321.087 45.9493 321.816 45.6408C321.853 45.6237 321.893 45.6094 321.93 45.5894C322.322 45.418 322.707 45.2009 323.081 44.9667C323.427 44.7496 323.761 44.5182 324.075 44.2896C324.818 43.7497 325.458 43.0841 326.121 42.45C326.775 41.8272 327.486 41.2702 328.226 40.7531C328.76 40.3789 329.38 39.9933 330.037 39.8819C330.312 39.8333 330.591 39.8333 330.874 39.9019C331.828 40.1275 331.723 41.2988 331.703 42.0558C331.697 42.2558 331.697 42.4585 331.703 42.6642V42.6728C331.748 44.4353 332.243 46.3922 333.871 47.2063C333.879 47.212 333.885 47.2148 333.894 47.2177C334.025 47.2834 334.162 47.3406 334.308 47.3891C334.365 47.4091 334.419 47.4262 334.482 47.4434C336.673 48.0833 338.793 46.8835 340.647 45.8237C340.833 45.718 341.024 45.6123 341.218 45.5066C341.49 45.3609 341.77 45.2209 342.052 45.0895C343.829 44.2639 345.826 43.824 347.489 45.1867C348.406 45.9351 349.205 46.7321 350.351 47.1577C351.436 47.5576 352.525 47.6977 353.673 47.632C356.367 47.4806 359.078 46.952 361.692 46.3064C362.355 46.1436 363.017 45.9665 363.674 45.778C363.823 45.7352 363.969 45.6094 364.086 45.4752C352.399 49.026 350.137 46.3779 348.448 44.621ZM307.695 39.0877C307.424 39.6476 306.984 40.2047 306.344 40.3846C305.824 40.3389 305.79 39.9762 305.91 39.7048C306.141 39.1877 306.219 38.4393 306.953 38.4078C307.236 38.3936 307.907 38.6478 307.695 39.0877ZM308.992 39.759C308.99 39.7619 308.987 39.7648 308.987 39.7648V39.7619C308.987 39.759 308.99 39.759 308.992 39.759C309.047 39.7105 309.104 39.6648 309.167 39.6248C309.078 39.6933 309.015 39.7448 308.992 39.759ZM308.847 37.9622C308.461 38.4364 308.127 38.0765 307.813 37.8537C307.441 37.5909 307.441 37.3023 307.778 36.9767C308.224 36.5367 308.672 36.094 309.064 35.6112C309.318 35.297 309.764 34.9256 309.298 34.4828C308.841 34.0486 308.344 34.1228 307.85 34.5028C307.267 34.9484 307.29 35.834 306.499 36.2368C305.293 33.8058 305.907 31.4119 307.947 30.4292C309.652 29.615 311.223 30.5892 311.243 32.4546C311.263 34.6542 310.152 36.351 308.847 37.9622Z"
        fill="#270641" />
    <path
        d="M0.229152 67.4072L0 72.0195H1.08698L1.11047 71.7375C1.16335 71.0266 1.33376 70.4566 1.60991 70.0512C1.88606 69.6517 2.20331 69.3873 2.57346 69.2522C2.7791 69.1817 3.22566 69.0936 4.17161 69.0936H5.91073V81.808C5.91073 82.9714 5.76975 83.3474 5.68749 83.4708C5.4466 83.8234 5.02353 83.9937 4.40661 83.9937H3.49591V85.0748H11.3338V83.9937H10.4348C9.86493 83.9937 9.44778 83.8527 9.19513 83.5707C9.11875 83.4767 8.93073 83.1241 8.93073 81.8139V69.0994H11.0224C11.6687 69.0994 12.1975 69.2052 12.5794 69.4109C12.9613 69.6165 13.2551 69.9219 13.4901 70.3567C13.6311 70.627 13.7486 71.0971 13.8368 71.761L13.872 72.0254H14.9414L14.7239 67.4131H0.229152V67.4072Z"
        fill="#270641" />
    <path
        d="M35.6631 68.4854H36.5738C36.9263 68.4854 37.2495 68.5735 37.5667 68.7498C37.7724 68.8673 37.9017 68.9965 37.9604 69.1375C38.025 69.302 38.1014 69.7135 38.1014 70.7476V75.3185H30.7982V70.7476C30.7982 69.7546 30.8687 69.3491 30.9274 69.1905C30.998 68.9907 31.1272 68.8438 31.327 68.7439C31.6384 68.5735 31.9792 68.4913 32.3258 68.4913H33.2483V67.4102H25.334V68.4913H26.2447C26.5972 68.4913 26.9262 68.5794 27.2494 68.7498C27.4492 68.8673 27.5784 68.9965 27.6313 69.1375C27.6959 69.302 27.7723 69.7135 27.7723 70.7476V81.7464C27.7723 83.039 27.6019 83.4033 27.5373 83.4914C27.2788 83.8263 26.8558 83.9907 26.2447 83.9907H25.334V85.0719H33.2483V83.9907H32.3258C31.9792 83.9907 31.6443 83.9026 31.3329 83.7264C31.1272 83.6089 30.998 83.4797 30.9392 83.3386C30.8746 83.1741 30.7982 82.7629 30.7982 81.7405V76.858H38.1014V81.7405C38.1014 83.0273 37.9252 83.3915 37.8547 83.4855C37.5961 83.8204 37.1789 83.9849 36.5738 83.9849H35.6631V85.066H43.5656V83.9849H42.6549C42.3024 83.9849 41.9733 83.8968 41.6502 83.7264C41.4504 83.6089 41.3212 83.4797 41.2683 83.3386C41.2037 83.1741 41.1273 82.7629 41.1273 81.7405V70.7417C41.1273 69.7487 41.1978 69.3432 41.2565 69.1787C41.327 68.9789 41.4563 68.8379 41.6561 68.738C41.9733 68.5677 42.3083 68.4854 42.6549 68.4854H43.5656V67.4043H35.6631V68.4854Z"
        fill="#270641" />
    <path
        d="M68.0778 80.3382C67.549 81.3547 67.032 82.1186 66.5384 82.6121C66.1741 82.9705 65.7923 83.2114 65.4045 83.3289C64.9991 83.4523 64.3234 83.5169 63.395 83.5169H60.5043C59.9402 83.5169 59.7581 83.4463 59.6994 83.4111C59.5936 83.3523 59.5172 83.2701 59.482 83.1702C59.4702 83.1409 59.4056 82.9293 59.4056 81.9128V76.6015H62.8428C63.5067 76.6015 63.9944 76.6778 64.294 76.8188C64.5819 76.9598 64.7758 77.1419 64.8933 77.3711C64.9521 77.4886 65.0695 77.8353 65.2164 78.8752L65.2517 79.1396H66.2917V72.5944H65.2282L65.2105 72.8882C65.1635 73.7695 64.9521 74.3806 64.5819 74.7096C64.3998 74.8741 63.9474 75.0679 62.8369 75.0679H59.3997V68.9457H63.7711C64.7758 68.9457 65.2282 69.0398 65.4221 69.1103C65.7863 69.263 66.0507 69.4745 66.2329 69.7565C66.368 69.9621 66.5678 70.4321 66.7734 71.4956L66.8204 71.7425H67.8839L67.6665 67.3945H53.9355V68.4757H54.8462C55.4573 68.4757 55.8862 68.6108 56.1212 68.8693C56.1976 68.9574 56.3739 69.3041 56.3739 70.6672V81.7367C56.3739 82.7179 56.3033 83.1173 56.2504 83.276C56.1799 83.4698 56.0507 83.6108 55.8451 83.7107C55.5278 83.8811 55.1929 83.9635 54.8462 83.9635H53.9355V85.0445H67.596L69.2764 80.156H68.1542L68.0778 80.3382Z"
        fill="#270641" />
    <path
        d="M109.061 68.3003C107.698 67.7069 105.707 67.4072 103.127 67.4072H95.8828V68.4884H96.8288C97.3869 68.4884 97.7864 68.6353 98.0567 68.9349C98.139 69.0289 98.3328 69.3932 98.3328 70.7328V81.7435C98.3328 82.9186 98.1918 83.3063 98.1037 83.4355C97.8628 83.8057 97.4457 83.9878 96.8288 83.9878H95.8828V85.0689H103.803C107.187 85.0689 109.749 84.1406 111.418 82.3016C112.904 80.6565 113.656 78.5883 113.656 76.15C113.656 74.3345 113.233 72.707 112.399 71.3204C111.564 69.9161 110.442 68.8996 109.061 68.3003ZM108.345 81.6142C107.128 82.9068 105.577 83.5648 103.732 83.5648C103.092 83.5648 102.293 83.4649 101.365 83.271V69.2698C102.211 69.0701 102.969 68.9702 103.633 68.9702C105.548 68.9702 107.134 69.6223 108.351 70.909C109.573 72.2016 110.19 74.0054 110.19 76.2675C110.184 78.5178 109.561 80.3157 108.345 81.6142Z"
        fill="#270641" />
    <path
        d="M138.623 80.3382C138.094 81.3547 137.577 82.1186 137.083 82.6121C136.719 82.9705 136.337 83.2114 135.949 83.3289C135.544 83.4523 134.868 83.5169 133.94 83.5169H131.049C130.485 83.5169 130.303 83.4463 130.244 83.4111C130.139 83.3523 130.062 83.2701 130.027 83.1702C130.015 83.1409 129.951 82.9293 129.951 81.9128V76.6015H133.388C134.052 76.6015 134.539 76.6778 134.839 76.8188C135.121 76.9598 135.321 77.1419 135.438 77.3711C135.497 77.4886 135.615 77.8353 135.761 78.8752L135.797 79.1396H136.837V72.5944H135.773L135.756 72.8882C135.709 73.7695 135.497 74.3806 135.127 74.7096C134.945 74.8741 134.492 75.0679 133.382 75.0679H129.945V68.9457H134.31C135.315 68.9457 135.767 69.0398 135.961 69.1103C136.325 69.263 136.59 69.4745 136.772 69.7565C136.907 69.9621 137.107 70.4321 137.313 71.4956L137.36 71.7425H138.423L138.206 67.3945H124.475V68.4757H125.385C125.996 68.4757 126.425 68.6108 126.66 68.8693C126.737 68.9574 126.913 69.3041 126.913 70.6672V81.7367C126.913 82.7179 126.842 83.1173 126.784 83.276C126.713 83.4698 126.584 83.6108 126.384 83.7107C126.067 83.8811 125.732 83.9635 125.385 83.9635H124.475V85.0445H138.135L139.815 80.156H138.693L138.623 80.3382Z"
        fill="#270641" />
    <path
        d="M161.229 76.6006C160.635 76.1364 159.525 75.4665 157.927 74.6028C156.017 73.5805 154.801 72.758 154.307 72.1587C153.99 71.7885 153.837 71.389 153.837 70.9365C153.837 70.3431 154.084 69.8202 154.595 69.3443C155.112 68.8625 155.747 68.6275 156.546 68.6275C157.263 68.6275 157.962 68.8155 158.638 69.1798C159.307 69.5441 159.824 70.0435 160.183 70.6604C160.553 71.295 160.811 72.1645 160.952 73.2456L160.988 73.5101H162.028V67H161.005L160.952 67.2408C160.858 67.6874 160.753 67.8284 160.712 67.8696C160.629 67.9459 160.529 67.9812 160.388 67.9812C160.324 67.9812 160.1 67.9518 159.519 67.6933C158.473 67.235 157.462 67 156.516 67C154.995 67 153.72 67.4759 152.727 68.4101C151.728 69.3501 151.223 70.49 151.223 71.7943C151.223 72.5464 151.393 73.2456 151.74 73.8743C152.075 74.4971 152.574 75.0671 153.22 75.5783C153.855 76.0777 154.883 76.7239 156.37 77.5582C157.809 78.3632 158.696 78.8919 159.014 79.1387C159.46 79.4795 159.795 79.8497 160.001 80.2316C160.206 80.6135 160.312 80.9895 160.312 81.3537C160.312 82.0236 160.048 82.5934 159.501 83.087C158.955 83.5864 158.191 83.8332 157.227 83.8332C156.375 83.8332 155.588 83.6452 154.877 83.2633C154.172 82.8872 153.643 82.4173 153.308 81.8591C152.962 81.2892 152.68 80.3961 152.468 79.221L152.421 78.9684H151.393V85.4256H152.427L152.468 85.161C152.539 84.7028 152.627 84.5795 152.656 84.5501C152.697 84.509 152.768 84.456 152.932 84.456C153.038 84.456 153.361 84.5031 154.39 84.838C155.23 85.1083 155.776 85.2609 156.046 85.3079C156.499 85.3843 156.987 85.4256 157.492 85.4256C159.137 85.4256 160.512 84.9261 161.563 83.939C162.627 82.9461 163.162 81.7533 163.162 80.3785C163.162 79.6558 162.991 78.9507 162.656 78.2926C162.327 77.664 161.846 77.0824 161.229 76.6006Z"
        fill="#270641" />
    <path
        d="M173.83 68.4816H174.741C175.087 68.4816 175.428 68.5696 175.74 68.74C175.939 68.8575 176.069 68.9869 176.122 69.1279C176.186 69.2924 176.263 69.7037 176.263 70.726V81.7367C176.263 83.0293 176.092 83.3935 176.028 83.4817C175.769 83.8166 175.346 83.981 174.735 83.981H173.824V85.0621H181.739V83.981H180.816C180.464 83.981 180.14 83.8929 179.823 83.7166C179.617 83.5991 179.488 83.4699 179.429 83.3289C179.365 83.1644 179.288 82.7531 179.288 81.7308V70.7201C179.288 69.4334 179.465 69.0692 179.541 68.9751C179.8 68.6402 180.217 68.4757 180.822 68.4757H181.744V67.3945H173.83V68.4816Z"
        fill="#270641" />
    <path
        d="M203.316 76.2362H203.622C204.415 76.2362 204.768 76.3302 204.92 76.4125C205.132 76.5182 205.285 76.671 205.385 76.8767C205.443 77 205.549 77.3643 205.549 78.416V83.1634C205.073 83.416 204.58 83.6158 204.08 83.7509C203.522 83.9037 202.94 83.98 202.341 83.98C201.331 83.98 200.332 83.6804 199.368 83.0869C198.405 82.4994 197.617 81.5536 197.018 80.2727C196.413 78.9801 196.101 77.5288 196.101 75.9542C196.101 74.0211 196.56 72.3349 197.47 70.9483C198.551 69.309 200.085 68.51 202.165 68.51C203.669 68.51 204.909 68.9741 205.861 69.8965C206.524 70.537 207.077 71.5124 207.506 72.7991L207.576 73.0106H208.569L208.081 67.0176H207.042L207.024 67.3055C206.995 67.8108 206.906 67.9635 206.877 67.9988C206.806 68.0869 206.754 68.0987 206.713 68.0987C206.671 68.0987 206.477 68.081 205.878 67.8519C204.92 67.4993 204.204 67.2761 203.675 67.1704C203.152 67.0646 202.564 67.0117 201.924 67.0117C200.179 67.0117 198.634 67.3936 197.347 68.1456C195.813 69.0505 194.591 70.3608 193.71 72.0353C192.97 73.4454 192.594 74.9435 192.594 76.4888C192.594 78.6216 193.264 80.5312 194.586 82.1587C196.348 84.3385 198.951 85.4371 202.329 85.4371C203.493 85.4371 204.574 85.3138 205.537 85.0612C206.495 84.8144 207.476 84.4207 208.458 83.8919L208.616 83.8039V78.4042C208.616 77.3349 208.734 76.8943 208.828 76.718C209.016 76.3831 209.368 76.2244 209.903 76.2244H210.526V75.1317H203.316V76.2362Z"
        fill="#270641" />
    <path
        d="M232.507 68.4825H233.406C233.982 68.4825 234.399 68.6235 234.646 68.9114C234.728 68.9995 234.916 69.3579 234.916 70.6681V79.6341L224.951 67.4072H219.875V68.4884H220.181C220.645 68.4884 220.985 68.5236 221.191 68.5882C221.649 68.7351 222.002 68.8938 222.231 69.0583C222.384 69.1699 222.684 69.4343 223.23 70.0688V81.808C223.23 82.9714 223.089 83.3474 223.007 83.4708C222.766 83.8234 222.343 83.9937 221.714 83.9937H220.815V85.0748H227.36V83.9937H226.45C225.88 83.9937 225.463 83.8527 225.21 83.5707C225.134 83.4825 224.946 83.1241 224.946 81.8139V72.1782L235.727 85.351H236.632V70.6799C236.632 69.5166 236.773 69.1405 236.855 69.023C237.096 68.6705 237.519 68.5001 238.136 68.5001H239.047V67.419H232.501V68.4825H232.507Z"
        fill="#270641" />
    <path
        d="M275.88 68.4854H276.791C277.143 68.4854 277.466 68.5735 277.784 68.7498C277.989 68.8673 278.118 68.9965 278.177 69.1375C278.23 69.2727 278.318 69.6606 278.318 70.7476V75.3185H271.015V70.7476C271.015 69.7546 271.085 69.3491 271.144 69.1905C271.221 68.9907 271.35 68.8438 271.544 68.7439C271.855 68.5735 272.196 68.4913 272.543 68.4913H273.465V67.4102H265.551V68.4913H266.462C266.814 68.4913 267.143 68.5794 267.466 68.7498C267.666 68.8673 267.795 68.9965 267.848 69.1375C267.913 69.302 267.989 69.7135 267.989 70.7476V81.7464C267.989 83.039 267.819 83.4033 267.754 83.4914C267.496 83.8263 267.073 83.9907 266.462 83.9907H265.551V85.0719H273.465V83.9907H272.543C272.19 83.9907 271.867 83.9026 271.55 83.7264C271.344 83.6089 271.215 83.4797 271.156 83.3386C271.091 83.1741 271.015 82.7629 271.015 81.7405V76.858H278.318V81.7405C278.318 83.0273 278.142 83.3915 278.066 83.4855C277.807 83.8204 277.39 83.9849 276.785 83.9849H275.874V85.066H283.777V83.9849H282.866C282.513 83.9849 282.184 83.8968 281.861 83.7264C281.661 83.6089 281.532 83.4797 281.479 83.3386C281.415 83.1741 281.338 82.7629 281.338 81.7405V70.7417C281.338 69.7487 281.409 69.3432 281.467 69.1787C281.538 68.9848 281.667 68.8379 281.867 68.738C282.184 68.5677 282.519 68.4854 282.866 68.4854H283.777V67.4043H275.874V68.4854H275.88Z"
        fill="#270641" />
    <path
        d="M303.346 67.0186C301.049 67.0186 299.046 67.7941 297.395 69.3217C295.497 71.0843 294.533 73.3876 294.533 76.1726C294.533 78.8871 295.368 81.1373 297.013 82.8588C298.664 84.5803 300.726 85.4557 303.147 85.4557C305.544 85.4557 307.612 84.5626 309.298 82.8C310.979 81.0374 311.831 78.7989 311.831 76.1432C311.831 73.558 310.985 71.3723 309.31 69.639C307.647 67.894 305.638 67.0186 303.346 67.0186ZM306.848 82.1832C305.855 83.37 304.639 83.9458 303.117 83.9458C301.701 83.9458 300.597 83.4228 299.739 82.3535C298.599 80.914 298.023 78.8224 298.023 76.1197C298.023 73.4874 298.581 71.4722 299.674 70.1326C300.544 69.0691 301.666 68.552 303.106 68.552C304.645 68.552 305.82 69.075 306.684 70.1443C307.782 71.5133 308.341 73.6461 308.341 76.4722C308.346 79.0751 307.841 80.9963 306.848 82.1832Z"
        fill="#270641" />
    <path
        d="M334.43 68.4816H335.376C335.934 68.4816 336.333 68.6284 336.604 68.9281C336.686 69.0221 336.88 69.3864 336.88 70.726V77.6238C336.88 79.3806 336.727 80.6379 336.421 81.3547C336.128 82.0421 335.564 82.6239 334.753 83.0704C333.924 83.5287 332.967 83.7578 331.909 83.7578C331.092 83.7578 330.393 83.6109 329.847 83.3289C329.3 83.0469 328.872 82.6825 328.584 82.2477C328.29 81.813 328.084 81.1843 327.973 80.3794C327.855 79.5392 327.796 78.793 327.796 78.1467V70.7201C327.796 69.5568 327.961 69.1513 328.055 69.0103C328.296 68.6519 328.707 68.4757 329.312 68.4757H330.27V67.3945H322.291V68.4757H323.237C323.789 68.4757 324.183 68.6049 324.406 68.8634C324.571 69.0455 324.765 69.5215 324.765 70.7201V77.3828C324.765 79.4921 324.9 80.8964 325.188 81.6837C325.611 82.8294 326.339 83.7577 327.356 84.4334C328.366 85.1091 329.847 85.4557 331.762 85.4557C333.525 85.4557 334.947 85.0974 335.987 84.3924C337.027 83.6814 337.744 82.8177 338.102 81.8189C338.449 80.8435 338.631 79.4746 338.631 77.7354V70.8259C338.631 69.6273 338.778 69.2806 338.848 69.1807C339.154 68.7107 339.571 68.4816 340.135 68.4816H341.081V67.4004H334.436V68.4816H334.43Z"
        fill="#270641" />
    <path
        d="M362.283 76.6006C361.69 76.1364 360.579 75.4665 358.975 74.6028C357.066 73.5805 355.85 72.758 355.356 72.1645C355.039 71.7885 354.886 71.3889 354.886 70.9424C354.886 70.349 355.133 69.8261 355.644 69.3502C356.161 68.8684 356.796 68.6334 357.595 68.6334C358.311 68.6334 359.011 68.8214 359.686 69.1856C360.35 69.5499 360.873 70.0493 361.232 70.6663C361.602 71.3008 361.86 72.1703 362.001 73.2573L362.037 73.5218H363.076V67.0117H362.054L362.001 67.2526C361.907 67.6991 361.801 67.8402 361.76 67.8754C361.678 67.9518 361.578 67.987 361.437 67.987C361.367 67.987 361.149 67.9576 360.568 67.6991C359.522 67.2408 358.511 67.0059 357.565 67.0059C356.044 67.0059 354.769 67.4817 353.776 68.4159C352.777 69.356 352.271 70.4958 352.271 71.8002C352.271 72.5523 352.442 73.2515 352.789 73.8801C353.123 74.5029 353.623 75.0729 354.269 75.5841C354.904 76.0835 355.932 76.7298 357.418 77.5641C358.858 78.369 359.745 78.9036 360.056 79.1445C360.503 79.4853 360.838 79.8555 361.049 80.2374C361.255 80.6193 361.361 80.9953 361.361 81.3596C361.361 82.0294 361.096 82.5934 360.55 83.0928C360.004 83.5923 359.24 83.839 358.276 83.839C357.424 83.839 356.637 83.651 355.926 83.2691C355.221 82.8931 354.692 82.4231 354.351 81.865C354.005 81.295 353.723 80.4078 353.511 79.2269L353.464 78.9741H352.436V85.4314H353.47L353.511 85.1669C353.582 84.7086 353.67 84.5852 353.699 84.5558C353.74 84.5147 353.811 84.4619 353.975 84.4619C354.081 84.4619 354.404 84.509 355.432 84.8439C356.273 85.1141 356.813 85.2668 357.089 85.3138C357.542 85.3902 358.029 85.4314 358.535 85.4314C360.18 85.4314 361.555 84.932 362.606 83.9449C363.67 82.9519 364.205 81.7533 364.205 80.3843C364.205 79.6616 364.034 78.9566 363.699 78.2985C363.376 77.6581 362.9 77.0823 362.283 76.6006Z"
        fill="#270641" />
    <path
        d="M389.584 80.3382C389.055 81.3547 388.538 82.1186 388.044 82.6121C387.68 82.9705 387.298 83.2114 386.91 83.3289C386.505 83.4523 385.829 83.5169 384.901 83.5169H382.01C381.446 83.5169 381.264 83.4463 381.205 83.4111C381.1 83.3523 381.023 83.2701 380.982 83.1702C380.964 83.1291 380.906 82.9058 380.906 81.9128V76.6015H384.343C385.007 76.6015 385.494 76.6778 385.794 76.8188C386.082 76.9598 386.276 77.1419 386.393 77.3711C386.452 77.4886 386.57 77.8353 386.716 78.8752L386.752 79.1396H387.792V72.5944H386.728L386.716 72.8882C386.669 73.7695 386.458 74.3806 386.088 74.7096C385.906 74.8741 385.453 75.0679 384.343 75.0679H380.906V68.9457H385.277C386.282 68.9457 386.734 69.0398 386.928 69.1103C387.292 69.263 387.557 69.4745 387.739 69.7565C387.874 69.9621 388.074 70.4321 388.279 71.4956L388.326 71.7425H389.39L389.172 67.3945H375.441V68.4757H376.352C376.963 68.4757 377.392 68.6108 377.627 68.8693C377.686 68.9398 377.88 69.2688 377.88 70.6672V81.7367C377.88 82.7179 377.809 83.1173 377.756 83.276C377.686 83.4698 377.557 83.6108 377.351 83.7107C377.04 83.8811 376.699 83.9635 376.352 83.9635H375.441V85.0445H389.102L390.782 80.156H389.666L389.584 80.3382Z"
        fill="#270641" />
</svg>