<svg width="23" height="20" viewBox="0 0 23 20" fill="none" xmlns="http://www.w3.org/2000/svg">
<path d="M14.647 5.55923C14.0597 5.04994 13.2697 4.76866 12.4522 4.76866C12.2534 4.76866 12.0686 4.69987 11.9373 4.58603C11.8071 4.47315 11.7423 4.32829 11.7423 4.18615C11.7423 4.04401 11.8071 3.89914 11.9373 3.78626C12.0686 3.67242 12.2534 3.60363 12.4522 3.60363C13.6673 3.60363 14.8268 4.02249 15.6767 4.75946C16.5256 5.49547 16.9942 6.48548 16.9942 7.50886C16.9942 7.651 16.9293 7.79586 16.7992 7.90874C16.6679 8.02259 16.4831 8.09137 16.2843 8.09137C16.0855 8.09137 15.9007 8.02259 15.7694 7.90874C15.6393 7.79586 15.5744 7.651 15.5744 7.50886C15.5744 6.76976 15.2355 6.06948 14.647 5.55923Z" fill="#270641" stroke="#4C2A76" stroke-width="0.496324"/>
<path d="M17.3568 3.21114C16.0507 2.07873 14.2861 1.44737 12.4522 1.44737C12.2534 1.44737 12.0686 1.37858 11.9373 1.26474C11.8071 1.15186 11.7423 1.007 11.7423 0.864858C11.7423 0.722716 11.8071 0.577853 11.9373 0.464975C12.0686 0.351131 12.2534 0.282341 12.4522 0.282341C14.6837 0.282341 16.8178 1.05127 18.3865 2.41138C19.954 3.77051 20.8263 5.60566 20.8263 7.51028C20.8263 7.65242 20.7615 7.79729 20.6313 7.91016C20.5 8.02401 20.3152 8.0928 20.1164 8.0928C19.9176 8.0928 19.7329 8.02401 19.6016 7.91016C19.4714 7.79729 19.4065 7.65242 19.4065 7.51028C19.4065 5.88995 18.6639 4.34452 17.3568 3.21114Z" fill="#270641" stroke="#4C2A76" stroke-width="0.496324"/>
<path d="M20.6044 11.6801L20.6044 11.6801L20.6056 11.6831C20.6802 11.865 20.7363 12.0518 20.7734 12.2415C20.809 12.435 20.8268 12.6305 20.8265 12.8263V12.8266C20.8265 13.2905 20.7212 13.7509 20.5153 14.1819C20.3093 14.6131 20.0062 15.0073 19.6213 15.3411C19.2364 15.6748 18.7776 15.9411 18.2703 16.1233C17.7631 16.3055 17.2186 16.3995 16.668 16.3996C12.8119 16.3952 9.12095 15.0648 6.40348 12.7086C3.68718 10.3533 2.16724 7.16844 2.16222 3.85512C2.16228 2.91993 2.59047 2.01451 3.3674 1.34086C4.14473 0.666857 5.20541 0.283096 6.31772 0.282343C6.55092 0.288688 6.78274 0.314896 7.00977 0.360541L7.01839 0.362273L7.0271 0.363391C7.24811 0.391747 7.46514 0.438815 7.67506 0.503824L7.67505 0.50384L7.6778 0.504656C7.79606 0.539789 7.89855 0.599444 7.97716 0.674944L8.14612 0.499032L7.97716 0.674944C8.05552 0.7502 8.1071 0.838091 8.13141 0.928823C8.13143 0.928884 8.13144 0.928945 8.13146 0.929006L9.4436 5.85356C9.44365 5.85373 9.44369 5.85391 9.44374 5.85408C9.46689 5.94301 9.46414 6.03516 9.43535 6.12347C9.4064 6.21231 9.35093 6.29747 9.26989 6.36938L9.26434 6.37431L9.25909 6.37957C9.22953 6.40914 9.21886 6.41887 9.20113 6.43111C9.1797 6.44589 9.14255 6.4676 9.06093 6.50697C8.91452 6.57759 8.66098 6.68833 8.17574 6.90026C8.1156 6.92653 8.05191 6.95435 7.98442 6.98384L7.74001 7.09063L7.86412 7.32672C8.83801 9.17919 10.5419 10.6585 12.6573 11.5037L12.8528 11.5818L12.9618 11.4016C13.2749 10.8837 13.429 10.6308 13.5218 10.4927C13.5675 10.4248 13.5926 10.3933 13.6097 10.3747C13.6252 10.3579 13.6376 10.3475 13.6714 10.3202L13.6715 10.3203L13.6762 10.3163C13.7597 10.2456 13.8651 10.1918 13.9839 10.1627C14.1026 10.1336 14.2284 10.1307 14.3491 10.1544C14.3492 10.1544 14.3493 10.1544 14.3493 10.1544L20.0964 11.2923C20.0966 11.2923 20.0968 11.2923 20.0969 11.2924C20.2193 11.317 20.3294 11.3678 20.4179 11.437C20.5063 11.5062 20.569 11.5906 20.6044 11.6801Z" fill="#270641" stroke="#4C2A76" stroke-width="0.496324"/>
</svg>
